<svg width="312" height="174" viewBox="0 0 312 174" fill="none" xmlns="http://www.w3.org/2000/svg">
<rect width="312" height="174" fill="#EEEEEE"/>
<path d="M125.511 127.434V135.044C125.509 135.93 125.683 136.808 126.022 137.628C126.361 138.447 126.858 139.191 127.485 139.818C128.111 140.445 128.856 140.942 129.675 141.28C130.494 141.619 131.372 141.793 132.259 141.792H194.606C195.492 141.793 196.37 141.619 197.189 141.28C198.008 140.942 198.753 140.445 199.38 139.818C200.006 139.191 200.503 138.447 200.842 137.628C201.181 136.808 201.355 135.93 201.354 135.044V127.434H125.511Z" fill="black"/>
<path d="M201.354 33.3573V25.748C201.355 24.8616 201.181 23.9836 200.842 23.1644C200.503 22.3452 200.006 21.6009 199.38 20.9741C198.753 20.3473 198.008 19.8503 197.189 19.5115C196.37 19.1728 195.492 18.999 194.606 19H132.259C131.372 18.999 130.494 19.1728 129.675 19.5115C128.856 19.8503 128.111 20.3473 127.485 20.9741C126.858 21.6009 126.361 22.3452 126.022 23.1644C125.683 23.9836 125.509 24.8616 125.511 25.748V33.3573H201.354Z" fill="black"/>
<path d="M125.51 33.3573H201.354V127.47H125.51V33.3573Z" fill="white"/>
<path d="M183.867 51.0839C183.754 51.4698 183.61 51.8397 183.401 52.1935L184.316 53.6728L182.647 55.3452L181.171 54.4286C180.818 54.6216 180.449 54.7824 180.064 54.8949L179.679 56.5834H177.321L176.92 54.8789C176.535 54.7663 176.166 54.6055 175.813 54.4125L174.337 55.3291L172.668 53.6568L173.583 52.1774C173.39 51.8236 173.23 51.4538 173.117 51.0678L171.417 50.6658V48.3342L173.117 47.9322C173.23 47.5463 173.374 47.1764 173.583 46.8227L172.668 45.3433L174.337 43.6709L175.813 44.5875C176.166 44.3946 176.535 44.2338 176.92 44.1212L177.321 42.4167H179.679L180.08 44.1212C180.465 44.2338 180.834 44.3946 181.187 44.5875L182.663 43.6709L183.498 44.5071L184.332 45.3433L183.417 46.8227C183.61 47.1764 183.77 47.5463 183.883 47.9322L185.583 48.3342V50.6819L183.867 51.0839Z" fill="#276EF1"/>
<path d="M178.508 53.7371C180.838 53.7371 182.727 51.8436 182.727 49.508C182.727 47.1723 180.838 45.2789 178.508 45.2789C176.177 45.2789 174.288 47.1723 174.288 49.508C174.288 51.8436 176.177 53.7371 178.508 53.7371Z" fill="#A0BFF9"/>
<path d="M178.508 52.5634C180.192 52.5634 181.556 51.1955 181.556 49.5081C181.556 47.8208 180.192 46.4529 178.508 46.4529C176.824 46.4529 175.46 47.8208 175.46 49.5081C175.46 51.1955 176.824 52.5634 178.508 52.5634Z" fill="black"/>
<path d="M178.508 50.8586C179.253 50.8586 179.856 50.2539 179.856 49.5079C179.856 48.7619 179.253 48.1572 178.508 48.1572C177.764 48.1572 177.161 48.7619 177.161 49.5079C177.161 50.2539 177.764 50.8586 178.508 50.8586Z" fill="white"/>
<path d="M140 66H186V75H140V66Z" fill="#EEEEEE"/>
<path d="M140 82H186V91H140V82Z" fill="#EEEEEE"/>
<path d="M140 98H186V107H140V98Z" fill="#EEEEEE"/>
<path d="M163.45 131.49C164.378 131.472 165.279 131.801 165.978 132.413C166.677 133.024 167.122 133.874 167.227 134.796C167.332 135.719 167.089 136.647 166.546 137.4C166.003 138.153 165.199 138.676 164.29 138.868C163.382 139.059 162.435 138.904 161.634 138.434C160.833 137.964 160.237 137.212 159.961 136.326C159.686 135.439 159.751 134.482 160.144 133.641C160.536 132.799 161.229 132.135 162.086 131.777C162.517 131.593 162.981 131.496 163.45 131.49Z" fill="white"/>
<path d="M207.562 65.373C206.408 66.5266 204.938 67.3123 203.338 67.6306C201.738 67.9489 200.08 67.7856 198.572 67.1613C197.065 66.5369 195.777 65.4797 194.87 64.1232C193.964 62.7667 193.48 61.1718 193.48 59.5404C193.48 57.9089 193.964 56.3141 194.87 54.9576C195.777 53.6011 197.065 52.5438 198.572 51.9195C200.08 51.2952 201.738 51.1318 203.338 51.4501C204.938 51.7685 206.408 52.5541 207.562 53.7077C208.33 54.4726 208.939 55.3816 209.355 56.3825C209.77 57.3834 209.984 58.4566 209.984 59.5404C209.984 60.6242 209.77 61.6974 209.355 62.6983C208.939 63.6992 208.33 64.6081 207.562 65.373Z" fill="#99644C"/>
<path d="M207.562 80.9149C206.408 82.0686 204.938 82.8542 203.338 83.1725C201.738 83.4908 200.08 83.3275 198.572 82.7032C197.065 82.0789 195.777 81.0216 194.87 79.6651C193.964 78.3086 193.48 76.7138 193.48 75.0823C193.48 73.4508 193.964 71.856 194.87 70.4995C195.777 69.143 197.065 68.0857 198.572 67.4614C200.08 66.8371 201.738 66.6738 203.338 66.9921C204.938 67.3104 206.408 68.096 207.562 69.2497C208.33 70.0145 208.939 70.9235 209.355 71.9244C209.77 72.9253 209.984 73.9985 209.984 75.0823C209.984 76.1661 209.77 77.2393 209.355 78.2402C208.939 79.2411 208.33 80.1501 207.562 80.9149Z" fill="#99644C"/>
<path d="M207.562 96.5289C206.408 97.6825 204.938 98.4682 203.338 98.7865C201.738 99.1048 200.08 98.9415 198.572 98.3171C197.065 97.6928 195.777 96.6356 194.87 95.279C193.964 93.9225 193.48 92.3277 193.48 90.6963C193.48 89.0648 193.964 87.47 194.87 86.1135C195.777 84.757 197.065 83.6997 198.572 83.0754C200.08 82.4511 201.738 82.2877 203.338 82.606C204.938 82.9243 206.408 83.71 207.562 84.8636C208.33 85.6285 208.939 86.5375 209.355 87.5384C209.77 88.5393 209.984 89.6124 209.984 90.6963C209.984 91.7801 209.77 92.8532 209.355 93.8541C208.939 94.8551 208.33 95.764 207.562 96.5289Z" fill="#99644C"/>
<path d="M207.562 112.07C206.408 113.224 204.938 114.01 203.338 114.328C201.738 114.646 200.08 114.483 198.572 113.859C197.065 113.234 195.777 112.177 194.87 110.821C193.964 109.464 193.48 107.869 193.48 106.238C193.48 104.606 193.964 103.012 194.87 101.655C195.777 100.299 197.065 99.2413 198.572 98.6169C200.08 97.9926 201.738 97.8293 203.338 98.1476C204.938 98.4659 206.408 99.2516 207.562 100.405C208.33 101.17 208.939 102.079 209.355 103.08C209.77 104.081 209.984 105.154 209.984 106.238C209.984 107.322 209.77 108.395 209.355 109.396C208.939 110.397 208.33 111.306 207.562 112.07Z" fill="#99644C"/>
<path d="M140.693 119.861V148.396L102 141.828V90.0693C102.002 84.0846 103.899 78.2543 107.42 73.4147L124.577 49.9755C125.097 49.2863 125.868 48.8312 126.723 48.7101C127.577 48.5889 128.445 48.8116 129.136 49.3293C131.691 51.3413 133.453 54.1921 134.11 57.3778C134.767 60.5636 134.276 63.8789 132.725 66.7377L127.448 76.4295V98.6474L128.023 98.9345C131.86 100.913 135.075 103.915 137.311 107.609C139.548 111.302 140.718 115.543 140.692 119.86" fill="#99644C"/>
<path d="M182.258 141.756L178.417 146.924C176.549 149.436 174.118 151.475 171.319 152.878C168.52 154.28 165.432 155.007 162.301 155H102V141.756H182.258Z" fill="#99644C"/>
</svg>
