<?xml version="1.0" encoding="UTF-8"?>
<svg width="68px" height="68px" viewBox="0 0 68 68" version="1.1" xmlns="http://www.w3.org/2000/svg" xmlns:xlink="http://www.w3.org/1999/xlink">
    <!-- Generator: Sketch 49.2 (51160) - http://www.bohemiancoding.com/sketch -->
    <title>icon/illustration/greatService Copy 7</title>
    <desc>Created with Sketch.</desc>
    <defs>
        <polygon id="path-1" points="7.63742072e-05 0.709692973 67.2093023 0.709692973 67.2093023 56.799693 7.63742072e-05 56.799693"></polygon>
        <polygon id="path-3" points="0.542201895 0.595833962 61.6744186 0.595833962 61.6744186 40.2696 0.542201895 40.2696"></polygon>
        <polygon id="path-5" points="0.020967608 7.73333333e-05 21.3488372 7.73333333e-05 21.3488372 23.083304 0.020967608 23.083304"></polygon>
    </defs>
    <g id="UberVSLift" stroke="none" stroke-width="1" fill="none" fill-rule="evenodd">
        <g id="D_Uber-vs-Lyft" transform="translate(-1019.000000, -1233.000000)">
            <g id="Group-14" transform="translate(140.000000, 1086.000000)">
                <g id="icon/illustration/whereTo-Copy-4" transform="translate(879.000000, 147.000000)">
                    <g id="Page-1">
                        <g id="Group-3" transform="translate(0.000000, 11.200000)">
                            <mask id="mask-2" fill="white">
                                <use xlink:href="#path-1"></use>
                            </mask>
                            <g id="Clip-2"></g>
                            <path d="M67.2093787,43.7970984 C67.2093787,46.4160389 66.4372355,48.8599741 65.1052693,50.8978659 C62.7987682,54.4578443 58.8013422,56.799693 54.2616594,56.799693 L7.63742072e-05,56.799693 L7.63742072e-05,12.1656389 L45.8452217,12.1656389 L67.2093787,0.709692973 L67.2093787,43.7970984 Z" id="Fill-1" fill="#276EF1" mask="url(#mask-2)"></path>
                        </g>
                        <g id="Group-6" transform="translate(5.534884, 21.600000)">
                            <mask id="mask-4" fill="white">
                                <use xlink:href="#path-3"></use>
                            </mask>
                            <g id="Clip-5"></g>
                            <path d="M61.6744947,0.595833962 L61.6744947,33.1473057 C60.2506532,37.4035925 56.2973991,40.2696 51.8469426,40.2696 L6.40584014,40.2696 C6.40584014,36.9955925 3.7759211,34.3405132 0.542201895,34.3405132 L0.542201895,13.2715472 C3.7759211,13.2715472 6.40584014,10.6172377 6.40584014,7.34323019 L52.2992217,7.34323019 C56.52963,7.34323019 60.2948152,4.63349434 61.6744947,0.595833962" id="Fill-4" fill="#9CC0FF" mask="url(#mask-4)"></path>
                        </g>
                        <path d="M46.6515474,27.2 C56.6952023,27.2 64.8372093,35.4379684 64.8372093,45.5996103 C64.8372093,55.7620316 56.6952023,64 46.6515474,64 C36.6078925,64 28.4651163,55.7620316 28.4651163,45.5996103 C28.4651163,35.4379684 36.6078925,27.2 46.6515474,27.2" id="Fill-7" fill="#276EF1"></path>
                        <path d="M17.791068,41.6 C19.7558394,41.6 21.3488372,43.2118395 21.3488372,45.2003752 C21.3488372,47.1881605 19.7558394,48.8 17.791068,48.8 C15.8262966,48.8 14.2325581,47.1881605 14.2325581,45.2003752 C14.2325581,43.2118395 15.8262966,41.6 17.791068,41.6" id="Fill-9" fill="#FFFFFF"></path>
                        <g id="Group-13" transform="translate(45.860465, 0.000000)">
                            <mask id="mask-6" fill="white">
                                <use xlink:href="#path-5"></use>
                            </mask>
                            <g id="Clip-12"></g>
                            <path d="M0.0682400332,7.73333333e-05 L9.95351412,7.73333333e-05 C16.2468463,7.73333333e-05 21.3492184,5.16749067 21.3492184,11.541304 C21.3492184,17.9158907 16.2468463,23.083304 9.95351412,23.083304 L0.020967608,23.083304 L0.0682400332,7.73333333e-05 Z" id="Fill-11" fill="#000000" mask="url(#mask-6)"></path>
                        </g>
                    </g>
                </g>
            </g>
        </g>
    </g>
</svg>