<svg width="312" height="174" viewBox="0 0 312 174" fill="none" xmlns="http://www.w3.org/2000/svg">
<rect width="312" height="174" fill="#EEEEEE"/>
<path d="M113.51 128.434V136.044C113.509 136.93 113.683 137.808 114.022 138.627C114.361 139.447 114.858 140.191 115.484 140.818C116.111 141.445 116.856 141.942 117.675 142.28C118.494 142.619 119.372 142.793 120.258 142.792H182.605C183.492 142.793 184.37 142.619 185.189 142.28C186.008 141.942 186.753 141.445 187.379 140.818C188.006 140.191 188.503 139.447 188.842 138.627C189.181 137.808 189.354 136.93 189.353 136.044V128.434H113.51Z" fill="black"/>
<path d="M189.353 34.3573V26.748C189.354 25.8616 189.181 24.9836 188.842 24.1644C188.503 23.3452 188.006 22.6009 187.379 21.9741C186.753 21.3473 186.008 20.8503 185.189 20.5115C184.37 20.1728 183.492 19.999 182.605 20H120.258C119.372 19.999 118.494 20.1728 117.675 20.5115C116.856 20.8503 116.111 21.3473 115.484 21.9741C114.858 22.6009 114.361 23.3452 114.022 24.1644C113.683 24.9836 113.509 25.8616 113.51 26.748V34.3573H189.353Z" fill="black"/>
<path d="M113.51 34.3571H189.353V128.47H113.51V34.3571Z" fill="white"/>
<path d="M138.82 63.7365H133.67H128.676V53.405C128.676 52.9994 129.007 52.6749 129.412 52.6749H138.081C138.489 52.6749 138.816 53.0031 138.816 53.405L138.82 63.7365Z" fill="#A0BFF9"/>
<path d="M134.758 57.8372V59.0023V59.9979H132.883V57.874C133.195 58.1579 134.758 57.8372 134.758 57.8372Z" fill="#99644C"/>
<path d="M132.879 58.1395V57.4279H134.754V59.0244C134.45 59.0244 134.238 59.0244 133.986 58.9396C133.585 58.7995 133.173 58.4787 132.879 58.1395Z" fill="#5C3C2E"/>
<path d="M131.973 55.7279C131.973 55.6799 131.977 55.6283 131.981 55.5804C131.985 55.5103 131.996 55.444 132.011 55.3776C132.011 55.3702 132.011 55.3628 132.011 55.3555C132.011 54.3857 132.705 53.5856 133.6 53.4676C133.674 53.4566 133.748 53.4529 133.826 53.4529C134.828 53.4529 135.638 54.3046 135.638 55.3555C135.638 55.3628 135.638 55.3702 135.638 55.3776C135.656 55.4808 135.671 55.5841 135.671 55.6947C135.671 55.7058 135.671 55.7168 135.671 55.7279C135.671 55.7279 135.679 55.8053 135.675 55.9344C135.671 56.0192 135.668 56.104 135.66 56.1888C135.656 56.2109 135.656 56.233 135.653 56.2551C135.642 56.3473 135.627 56.4358 135.608 56.5243C135.575 56.6792 135.534 56.834 135.478 56.9815C135.382 57.247 135.252 57.5014 135.092 57.7337C135.088 57.7374 135.088 57.7411 135.085 57.7448C135.059 57.7853 135.029 57.8222 134.999 57.8591C134.895 57.9955 134.78 58.1282 134.654 58.2499C134.65 58.2536 134.647 58.2573 134.643 58.261C134.138 58.8177 133.548 58.8436 133.009 58.261C133.006 58.2573 133.002 58.2536 132.998 58.2499C132.812 58.0692 132.649 57.8701 132.512 57.6563C132.423 57.5235 132.348 57.3834 132.282 57.2359C132.2 57.059 132.133 56.8746 132.081 56.6829C132.029 56.4911 131.996 56.2957 131.985 56.0929C131.981 56.0376 131.977 55.9823 131.977 55.9307C131.977 55.9122 131.977 55.8901 131.977 55.8754C131.97 55.7832 131.973 55.7279 131.973 55.7279Z" fill="#99644C"/>
<path d="M136.366 57.1256L135.549 54.681C135.523 54.622 135.497 54.563 135.474 54.504C135.2 53.8366 134.55 53.3536 133.815 53.3536H133.807C133.804 53.3536 133.796 53.3536 133.793 53.3536C133.778 53.3536 133.763 53.3536 133.748 53.3536H133.726H133.722C133.707 53.3536 133.689 53.3536 133.674 53.3573C132.994 53.4163 132.408 53.8772 132.152 54.504C132.126 54.563 132.103 54.622 132.077 54.681L131.261 57.1256C131.06 57.6492 130.978 58.5451 131.799 58.8733C132.003 58.9544 132.289 59.0208 132.868 59.0208H132.883V58.1395C132.868 58.1248 132.853 58.1064 132.838 58.0916C132.671 57.8224 132.437 57.3837 132.382 56.8933C132.348 56.5651 132.27 56.0526 132.708 55.7834C132.72 55.7797 132.731 55.7724 132.742 55.7687C133.206 55.577 133.574 55.2009 133.811 54.7584C134.049 55.2045 134.416 55.5806 134.88 55.7687C134.892 55.7724 134.903 55.7761 134.914 55.7834C135.352 56.0526 135.274 56.5688 135.241 56.8933C135.189 57.3837 134.955 57.8224 134.788 58.0916C134.773 58.1064 134.758 58.1248 134.743 58.1395V59.0208H134.758C135.337 59.0208 135.619 58.9544 135.827 58.8733C136.648 58.5451 136.566 57.6492 136.366 57.1256Z" fill="#263139"/>
<path d="M138.727 63.7366H128.902L129.438 61.9631L129.594 61.4432C129.742 60.82 130.362 60.3555 131.008 60.2448L132.523 59.8835C132.731 59.8356 132.876 59.6512 132.876 59.4373V59.0207H134.751V59.4373C134.751 59.6475 134.895 59.8319 135.103 59.8835L136.618 60.2448C137.264 60.3555 137.884 60.82 138.033 61.4432L138.727 63.7366Z" fill="white"/>
<path d="M134.012 57.5864C133.949 57.5496 133.871 57.557 133.819 57.6012C133.767 57.5533 133.685 57.5496 133.626 57.5864L133.332 57.7671L133.388 57.8151C133.507 57.9183 133.663 57.9736 133.822 57.9736C133.982 57.9736 134.134 57.9183 134.257 57.8151L134.313 57.7671L134.012 57.5864Z" fill="#5C3C2E"/>
<path d="M137.26 94.5108L137.132 95.7106L136.848 98.3482L136.445 102.126C136.436 102.255 136.326 102.354 136.207 102.354H132.931C132.812 102.354 132.711 102.255 132.693 102.126L132.574 101.025L132.007 95.7701L131.879 94.5108H137.26Z" fill="#F45858"/>
<path d="M134.34 93.6183L134.221 92.5375C134.203 92.3689 134.075 92.24 133.91 92.24H131.677V91.6848H133.91C134.331 91.6848 134.679 92.0219 134.725 92.478L134.844 93.5588L134.34 93.6183Z" fill="#FFC552"/>
<path d="M137.443 94.5109H131.677L131.796 94.3027V94.0449H132.226L132.418 93.3012H136.702L136.894 94.0449H137.324V94.3027L137.443 94.5109Z" fill="#FFE8BB"/>
<path d="M137.086 96.1271L136.848 98.3483L132.574 101.026L132.052 96.1271H137.086Z" fill="#FFC552"/>
<path d="M138.596 74.1195H129.343V83.1934H138.596V74.1195Z" fill="#FCD5A7"/>
<path d="M132.791 74.1197H131.764V72.9885L132.791 72.0137V74.1197Z" fill="#DC9B71"/>
<path d="M135.16 74.1199H136.174V72.9887L135.16 72.0139V74.1199Z" fill="#DC9B71"/>
<path d="M132.79 72.0139H135.16V72.9767H132.79V72.0139Z" fill="#FCD5A7"/>
<path d="M135.68 77.0079H132.258V80.2572H135.68V77.0079Z" fill="#5FB709"/>
<path d="M168.17 60.0286H142.259V64.4601H168.17V60.0286Z" fill="#EEEEEE"/>
<path d="M174.021 53.3417H142.259V57.7299H174.021V53.3417Z" fill="#EEEEEE"/>
<path d="M168.17 79.0333H142.259V83.4648H168.17V79.0333Z" fill="#EEEEEE"/>
<path d="M174.021 72.3466H142.259V76.7348H174.021V72.3466Z" fill="#EEEEEE"/>
<path d="M168.17 98.038H142.259V102.469H168.17V98.038Z" fill="#EEEEEE"/>
<path d="M174.021 91.3513H142.259V95.7395H174.021V91.3513Z" fill="#EEEEEE"/>
<path d="M151.45 132.49C152.378 132.472 153.28 132.801 153.978 133.413C154.677 134.024 155.122 134.874 155.227 135.796C155.332 136.719 155.09 137.647 154.546 138.4C154.003 139.153 153.199 139.676 152.29 139.868C151.382 140.059 150.435 139.904 149.634 139.434C148.834 138.964 148.237 138.212 147.962 137.326C147.686 136.439 147.751 135.482 148.144 134.641C148.537 133.799 149.229 133.135 150.086 132.777C150.517 132.593 150.981 132.496 151.45 132.49Z" fill="white"/>
<path d="M195.562 66.3731C194.408 67.5267 192.938 68.3124 191.338 68.6307C189.738 68.949 188.08 68.7856 186.572 68.1613C185.065 67.537 183.777 66.4797 182.87 65.1232C181.964 63.7667 181.48 62.1719 181.48 60.5404C181.48 58.909 181.964 57.3142 182.87 55.9576C183.777 54.6011 185.065 53.5439 186.572 52.9196C188.08 52.2952 189.738 52.1319 191.338 52.4502C192.938 52.7685 194.408 53.5542 195.562 54.7078C196.33 55.4727 196.939 56.3816 197.355 57.3825C197.77 58.3835 197.984 59.4566 197.984 60.5404C197.984 61.6243 197.77 62.6974 197.355 63.6983C196.939 64.6992 196.33 65.6082 195.562 66.3731Z" fill="#99644C"/>
<path d="M195.562 81.9151C194.408 83.0687 192.938 83.8543 191.338 84.1727C189.738 84.491 188.08 84.3276 186.572 83.7033C185.065 83.079 183.777 82.0217 182.87 80.6652C181.964 79.3087 181.48 77.7139 181.48 76.0824C181.48 74.451 181.964 72.8561 182.87 71.4996C183.777 70.1431 185.065 69.0859 186.572 68.4615C188.08 67.8372 189.738 67.6739 191.338 67.9922C192.938 68.3105 194.408 69.0962 195.562 70.2498C196.33 71.0147 196.939 71.9236 197.355 72.9245C197.77 73.9254 197.984 74.9986 197.984 76.0824C197.984 77.1662 197.77 78.2394 197.355 79.2403C196.939 80.2412 196.33 81.1502 195.562 81.9151Z" fill="#99644C"/>
<path d="M195.562 97.529C194.408 98.6827 192.938 99.4683 191.338 99.7866C189.738 100.105 188.08 99.9416 186.572 99.3173C185.065 98.6929 183.777 97.6357 182.87 96.2792C181.964 94.9227 181.48 93.3278 181.48 91.6964C181.48 90.0649 181.964 88.4701 182.87 87.1136C183.777 85.7571 185.065 84.6998 186.572 84.0755C188.08 83.4512 189.738 83.2879 191.338 83.6062C192.938 83.9245 194.408 84.7101 195.562 85.8637C196.33 86.6286 196.939 87.5376 197.355 88.5385C197.77 89.5394 197.984 90.6126 197.984 91.6964C197.984 92.7802 197.77 93.8534 197.355 94.8543C196.939 95.8552 196.33 96.7641 195.562 97.529Z" fill="#99644C"/>
<path d="M195.562 113.07C194.408 114.224 192.938 115.01 191.338 115.328C189.738 115.646 188.08 115.483 186.572 114.859C185.065 114.234 183.777 113.177 182.87 111.821C181.964 110.464 181.48 108.869 181.48 107.238C181.48 105.606 181.964 104.011 182.87 102.655C183.777 101.298 185.065 100.241 186.572 99.6169C188.08 98.9926 189.738 98.8292 191.338 99.1475C192.938 99.4658 194.408 100.251 195.562 101.405C196.33 102.17 196.939 103.079 197.355 104.08C197.77 105.081 197.984 106.154 197.984 107.238C197.984 108.322 197.77 109.395 197.355 110.396C196.939 111.397 196.33 112.306 195.562 113.07Z" fill="#99644C"/>
<path d="M128.693 120.861V149.396L90 142.828V91.0692C90.002 85.0845 91.8994 79.2542 95.42 74.4147L112.577 50.9754C113.097 50.2862 113.868 49.8311 114.723 49.71C115.577 49.5889 116.445 49.8116 117.136 50.3293C119.691 52.3412 121.453 55.1921 122.11 58.3778C122.767 61.5635 122.276 64.8789 120.725 67.7377L115.448 77.4294V99.6474L116.023 99.9344C119.86 101.913 123.075 104.915 125.311 108.609C127.548 112.302 128.718 116.543 128.692 120.86" fill="#99644C"/>
<path d="M170.258 142.756L166.417 147.924C164.549 150.436 162.118 152.475 159.319 153.878C156.52 155.28 153.432 156.007 150.301 156H90V142.756H170.258Z" fill="#99644C"/>
</svg>
