<svg width="312" height="174" viewBox="0 0 312 174" fill="none" xmlns="http://www.w3.org/2000/svg">
<rect width="312" height="174" fill="#EEEEEE"/>
<path d="M150.748 58.6619H137.535V98.1879H150.748V58.6619Z" fill="#FF7D49"/>
<path d="M102.339 44.0287L115.605 70.0554C117.555 73.8352 121.779 75.1311 125.136 72.9712C128.493 70.8113 129.63 66.0056 127.681 62.1718L113.223 36.5231C111.273 32.7433 107.05 28.3696 102.393 30.7994C98.169 32.9593 100.443 40.2489 102.339 44.0287Z" fill="#99644C"/>
<path d="M126.869 126.374L133.8 139.928C136.345 144.895 141.923 150.349 146.904 153.967C149.449 155.803 150.911 158.719 151.02 161.797V174H198.564V112.983L179.124 126.374H126.869Z" fill="#99644C"/>
<path d="M178.691 116.925V124.215C178.691 127.778 176.092 130.694 172.951 130.694H119.938C116.743 130.694 114.198 127.778 114.198 124.215V116.925H178.691Z" fill="black"/>
<path d="M178.691 28.2617H114.198V116.925H178.691V28.2617Z" fill="white"/>
<path d="M165.14 84.1852C165.14 85.4184 164.768 86.5644 164.148 87.5236C163.056 89.1927 161.171 90.3013 159.037 90.3013H127.922V69.2998H155.079L165.14 63.9186V84.1852Z" fill="#47B275"/>
<path d="M165.14 68.9011V84.1727C164.47 86.1782 162.597 87.5111 160.5 87.5111H134.894C134.894 85.9789 133.666 84.7208 132.115 84.7208V74.8304C133.641 74.8304 134.894 73.5972 134.894 72.0401H160.723C162.721 72.0651 164.495 70.7945 165.14 68.9011Z" fill="#BCE5C0"/>
<path d="M151.878 88.3332C156.579 88.3332 160.389 84.513 160.389 79.8005C160.389 75.088 156.579 71.2678 151.878 71.2678C147.178 71.2678 143.368 75.088 143.368 79.8005C143.368 84.513 147.178 88.3332 151.878 88.3332Z" fill="#47B275"/>
<path d="M138.505 81.532C139.457 81.532 140.229 80.7568 140.229 79.8005C140.229 78.8443 139.457 78.0691 138.505 78.0691C137.552 78.0691 136.78 78.8443 136.78 79.8005C136.78 80.7568 137.552 81.532 138.505 81.532Z" fill="#47B275"/>
<path d="M155.104 58.5H159.769C162.746 58.5 165.153 60.9166 165.153 63.8812C165.153 66.8458 162.746 69.2624 159.769 69.2624H155.092L155.104 58.5Z" fill="black"/>
<path d="M151.121 84.0357L148.417 80.7223L149.359 79.95L150.997 81.9555L155.116 75.3536L156.133 76.0013L151.121 84.0357Z" fill="white"/>
<path d="M155.104 58.5H152.052V61.5643H155.104V58.5Z" fill="black"/>
<path d="M155.104 64.6535H152.052V67.7178H155.104V64.6535Z" fill="black"/>
<path d="M152.052 61.5892H149V64.6535H152.052V61.5892Z" fill="black"/>
<path d="M147.424 58.5H144.372V61.5643H147.424V58.5Z" fill="black"/>
<path d="M108.242 93.4362C111.057 98.4039 117.339 98.4039 120.155 93.4362C121.563 90.8983 121.563 87.6585 120.155 85.1206C117.339 80.1528 111.057 80.1528 108.242 85.1206C106.834 87.6585 106.834 90.9523 108.242 93.4362Z" fill="#99644C"/>
<path d="M108.242 109.203C111.057 114.171 117.339 114.171 120.155 109.203C121.563 106.665 121.563 103.426 120.155 100.888C117.339 95.92 111.057 95.92 108.242 100.888C106.834 103.426 106.834 106.773 108.242 109.203Z" fill="#99644C"/>
<path d="M165.803 142.087L198.673 126.428V90.6282C198.673 84.9045 197.048 79.3428 194.07 74.645L177.012 48.1324C176.092 46.7285 174.305 46.5125 173.114 47.5384C168.619 51.5342 168.348 56.5559 171.11 62.1717L178.799 81.5027L177.175 98.8897L171.218 106.017C167.699 110.337 165.803 115.899 165.803 121.785V142.087Z" fill="#99644C"/>
<path d="M108.242 77.6149C111.057 82.5826 117.339 82.5826 120.155 77.6149C121.563 75.077 121.563 71.8372 120.155 69.2993C117.339 64.3316 111.057 64.3316 108.242 69.2993C106.834 71.8372 106.834 75.185 108.242 77.6149Z" fill="#99644C"/>
<path d="M146.417 126.968C148.271 126.968 149.774 125.542 149.774 123.783C149.774 122.023 148.271 120.597 146.417 120.597C144.563 120.597 143.06 122.023 143.06 123.783C143.06 125.542 144.563 126.968 146.417 126.968Z" fill="white"/>
<path d="M114.198 33.7693V26.4797C114.198 22.9158 116.797 20 119.938 20H172.951C176.146 20 178.691 22.9158 178.691 26.4797V33.7693H114.198Z" fill="black"/>
</svg>
