<svg width="312" height="174" viewBox="0 0 312 174" fill="none" xmlns="http://www.w3.org/2000/svg">
<rect width="312" height="174" fill="#EEEEEE"/>
<path d="M122.511 127.435V135.044C122.51 135.931 122.683 136.809 123.022 137.628C123.361 138.447 123.858 139.191 124.485 139.818C125.112 140.445 125.856 140.942 126.675 141.281C127.494 141.619 128.372 141.793 129.259 141.792H191.606C192.492 141.793 193.37 141.619 194.189 141.281C195.009 140.942 195.753 140.445 196.38 139.818C197.007 139.191 197.504 138.447 197.842 137.628C198.181 136.809 198.355 135.931 198.354 135.044V127.435H122.511Z" fill="black"/>
<path d="M198.354 33.3573V25.748C198.355 24.8616 198.181 23.9836 197.842 23.1644C197.504 22.3452 197.007 21.6009 196.38 20.9741C195.753 20.3473 195.009 19.8503 194.189 19.5115C193.37 19.1728 192.492 18.999 191.606 19H129.259C128.372 18.999 127.494 19.1728 126.675 19.5115C125.856 19.8503 125.112 20.3473 124.485 20.9741C123.858 21.6009 123.361 22.3452 123.022 23.1644C122.683 23.9836 122.51 24.8616 122.511 25.748V33.3573H198.354Z" fill="black"/>
<path d="M122.511 33.3575H198.354V127.47H122.511V33.3575Z" fill="white"/>
<path d="M160.45 131.491C161.378 131.473 162.279 131.802 162.978 132.413C163.676 133.024 164.122 133.874 164.227 134.797C164.332 135.719 164.089 136.648 163.546 137.401C163.003 138.154 162.198 138.677 161.29 138.868C160.381 139.059 159.434 138.905 158.634 138.434C157.833 137.964 157.237 137.213 156.961 136.326C156.686 135.44 156.75 134.482 157.143 133.641C157.536 132.8 158.229 132.135 159.085 131.778C159.517 131.593 159.98 131.496 160.45 131.491Z" fill="white"/>
<path d="M204.562 65.3734C203.409 66.527 201.939 67.3127 200.339 67.631C198.739 67.9493 197.08 67.7859 195.573 67.1616C194.065 66.5373 192.777 65.48 191.871 64.1235C190.964 62.767 190.481 61.1722 190.481 59.5407C190.481 57.9093 190.964 56.3145 191.871 54.958C192.777 53.6014 194.065 52.5442 195.573 51.9199C197.08 51.2955 198.739 51.1322 200.339 51.4505C201.939 51.7688 203.409 52.5545 204.562 53.7081C205.33 54.473 205.939 55.3819 206.355 56.3829C206.771 57.3838 206.985 58.4569 206.985 59.5407C206.985 60.6246 206.771 61.6977 206.355 62.6986C205.939 63.6995 205.33 64.6085 204.562 65.3734Z" fill="#99644C"/>
<path d="M204.562 80.915C203.409 82.0686 201.939 82.8543 200.339 83.1726C198.739 83.4909 197.08 83.3276 195.573 82.7032C194.065 82.0789 192.777 81.0217 191.871 79.6652C190.964 78.3087 190.481 76.7138 190.481 75.0824C190.481 73.4509 190.964 71.8561 191.871 70.4996C192.777 69.1431 194.065 68.0858 195.573 67.4615C197.08 66.8372 198.739 66.6738 200.339 66.9921C201.939 67.3104 203.409 68.0961 204.562 69.2497C205.33 70.0146 205.939 70.9236 206.355 71.9245C206.771 72.9254 206.985 73.9985 206.985 75.0824C206.985 76.1662 206.771 77.2393 206.355 78.2403C205.939 79.2412 205.33 80.1501 204.562 80.915Z" fill="#99644C"/>
<path d="M204.562 96.5289C203.409 97.6825 201.939 98.4682 200.339 98.7865C198.739 99.1048 197.08 98.9415 195.573 98.3171C194.065 97.6928 192.777 96.6356 191.871 95.2791C190.964 93.9225 190.481 92.3277 190.481 90.6963C190.481 89.0648 190.964 87.47 191.871 86.1135C192.777 84.757 194.065 83.6997 195.573 83.0754C197.08 82.4511 198.739 82.2877 200.339 82.606C201.939 82.9243 203.409 83.71 204.562 84.8636C205.33 85.6285 205.939 86.5375 206.355 87.5384C206.771 88.5393 206.985 89.6124 206.985 90.6963C206.985 91.7801 206.771 92.8532 206.355 93.8542C205.939 94.8551 205.33 95.764 204.562 96.5289Z" fill="#99644C"/>
<path d="M204.562 112.071C203.409 113.224 201.939 114.01 200.339 114.328C198.739 114.646 197.08 114.483 195.573 113.859C194.065 113.234 192.777 112.177 191.871 110.821C190.964 109.464 190.481 107.869 190.481 106.238C190.481 104.606 190.964 103.012 191.871 101.655C192.777 100.299 194.065 99.2413 195.573 98.617C197.08 97.9927 198.739 97.8294 200.339 98.1477C201.939 98.466 203.409 99.2516 204.562 100.405C205.33 101.17 205.939 102.079 206.355 103.08C206.771 104.081 206.985 105.154 206.985 106.238C206.985 107.322 206.771 108.395 206.355 109.396C205.939 110.397 205.33 111.306 204.562 112.071Z" fill="#99644C"/>
<path d="M137.693 119.861V148.397L99 141.828V90.0695C99.002 84.0848 100.899 78.2545 104.42 73.4149L121.577 49.9757C122.097 49.2865 122.868 48.8314 123.723 48.7103C124.577 48.5891 125.445 48.8118 126.136 49.3295C128.691 51.3414 130.453 54.1923 131.11 57.378C131.767 60.5638 131.276 63.8791 129.725 66.7379L124.448 76.4297V98.6476L125.023 98.9347C128.86 100.913 132.075 103.916 134.311 107.609C136.548 111.303 137.718 115.543 137.692 119.861" fill="#99644C"/>
<path d="M179.258 141.756L175.417 146.924C173.549 149.436 171.118 151.475 168.319 152.878C165.52 154.28 162.432 155.007 159.301 155H99V141.756H179.258Z" fill="#99644C"/>
<path d="M137.693 79.9996H183.134V93.7468H137.693V79.9996Z" fill="black"/>
<path d="M145.914 85.2067H175.686V88.8154H145.914V85.2067Z" fill="#F6F6F6"/>
</svg>
