<svg width="56" height="56" viewBox="0 0 56 56" fill="none" xmlns="http://www.w3.org/2000/svg">
<path d="M10.5 49.4944V52.9386C10.5 54.6607 11.9069 56.0001 13.5695 56.0001H42.1544C43.881 56.0001 45.2239 54.5969 45.2239 52.9386V49.4944H10.5Z" fill="black"/>
<path d="M45.2879 6.50569V3.06151C45.2879 1.33941 43.881 0 42.2184 0H13.6335C11.9069 0 10.564 1.40319 10.564 3.06151V6.50569H45.2879Z" fill="black"/>
<path d="M45.2239 6.50562H10.5V49.4942H45.2239V6.50562Z" fill="#276EF1"/>
<path d="M27.894 54.5331C28.7769 54.5331 29.4927 53.8192 29.4927 52.9385C29.4927 52.0579 28.7769 51.344 27.894 51.344C27.0111 51.344 26.2953 52.0579 26.2953 52.9385C26.2953 53.8192 27.0111 54.5331 27.894 54.5331Z" fill="#9CC0FF"/>
<path d="M22.3305 34.4554H15.2961V41.5989H22.3305V34.4554Z" fill="#9CC0FF"/>
<path d="M40.5363 21.5515H33.4091V41.5758H40.5363V21.5515Z" fill="#9CC0FF"/>
<path d="M31.3727 28.1697H24.4152V41.5757H31.3727V28.1697Z" fill="#9CC0FF"/>
<path d="M24.1632 19.2563L18.8728 24.4364L16.7788 22.3423L21.9589 17.0519H16.9992L20.3057 13.7455H27.4697V20.9095L24.1632 24.2159V19.2563Z" fill="white"/>
</svg>
